<svg height="47" viewBox="0 0 238 47" width="238" xmlns="http://www.w3.org/2000/svg"><g fill="#585454"><path d="m68.9137349 20.7373494c-1.899759-2.499759-5.0645783-5.486747-6.8645783-6.9093976.1142169-.5320482.1098795-1.0872289-.0202409-1.6120482-.24-.9657831-.8891567-1.7681928-1.8303615-2.25831324-.4756626-.2486747-.9975903-.37445783-1.5513253-.37445783-.2081928 0-.4106024.02024096-.6072289.05204819-.0693976.01156627-.1344578.03036145-.2024096.04626506-.1243374.0260241-.2486747.0520482-.3657832.08674699-.0780723.02313253-.1489156.05204819-.2226506.07951807-.099759.0346988-.2009638.06795181-.2949397.10843374-.0751808.03180723-.1431326.06650602-.2139759.09975902-.0824097.0390362-.1648193.0766265-.24.1171084-.0144579.007229-.0318073.0144579-.0462651.0216868-3.3715663-2.11518073-16.7898795-9.93831326-30.7113253-9.93831326-9.8631325 0-18.42506024 5.13542169-22.62650602 12.61301206l-.2486747.4236144c-1.69301205 2.8930121-2.51566265 6.1677109-2.51566265 10.0149398 0 .393253.01156626.7821687.03325301 1.1710843.00289157.0448193.00722892.0881928.01012048.1330121.69686747 11.5301205 10.56578318 20.9248193 23.04289158 21.653494l.4669879.0274698c.2327711.0159037.4640964.0318073.6983133.0419278l.12.0072289v-.0043374c.3383132.0130121.6780723.0231326 1.0207229.0231326.3701205 0 .7402409-.0144579 1.1089156-.0274699l-.0057831.013012.2168675-.0187952c.6549397-.0303614 1.3040964-.0896385 1.9503614-.1648192l.1980723-.0159036c5.5113253-.4655422 10.9344579-3.0346988 15.0520482-7.0640964.0274699-.0260241.0549398-.0520482.0824097-.0780723.286265-.2833735.5667469-.5725301.84-.8689157.0216867-.0231325.0448192-.0448193.066506-.0693976.219759-.2212048.4510843-.4843373.6809638-.7749397.5840964-.6939759 1.1277109-1.4226506 1.6178314-2.1657832l.013012-.0159036c1.8621687-2.4563855 4.1320482-4.7190361 8.0587952-4.7190361l3.1113253.0072289c3.6115663 0 5.6414458-.0968675 6.7156626-.6289157.9990362-.493012 3.7286747-2.3609638 4.3619277-5.0501205.3281928-1.4009638.0173494-2.7759036-.8992771-3.9816867zm-43.9055421 22.7985542c.1171084-4.8115663-1.0640964-19.9301205-18.99759039-30.0621687 3.86457831-6.20385538 11.25975899-10.4110843 19.73204819-10.4110843 1.9416867 0 3.8819277.17060241 5.7918072.46409639 2.7325302 21.79807231-2.1556626 36.54795181-3.4308433 39.91373491-.7792772.0722892-1.567229.1127711-2.3609639.1127711-.2457831-.0014458-.4901205-.0101205-.7344578-.0173494zm39.199518-16.2853012c-.6896385.3383133-4.2896385.3383133-5.4737349.3383133l-3.1113253-.007229c-2.7021687 0-4.7913253.8081928-6.4872289 1.9893976 1.1277108-6.4959036.4612048-14.5069879-5.3479518-22.58891563 5.7354217 2.29012049 10.059759 4.89253013 11.4289156 5.75566263 1.4255422.9166265 2.8756627 1.8057832 4.2853012 2.746988 2.0978314 1.4038554 3.9455422 3.2587952 5.6385543 5.1209638.2486747.2746988.493012.5522892.733012.8342169.0693976.0824096.7026506.7503614.6679518.819759-.2660241.5277109-.4583132 1.153735-.3802409 1.807229.0520481.4380722.1980722.7619277.3036144.9990361.020241.0433735.0433735.0968675.0621687.1387952-.6693976.9484337-1.7320482 1.7566265-2.3190362 2.0457831z"/><g transform="translate(55.385542 16.349398)"><circle cx="5.152771" cy="5.314699" r="1"/><path d="m3.90506024.8313253c-2.12963855 0-3.85445783 1.72626506-3.85445783 3.85590362 0 2.12963855 1.72626506 3.85590361 3.85445783 3.85590361 2.12963856 0 3.85590362-1.72626506 3.85590362-3.85590361 0-2.13108434-1.72626506-3.85590362-3.85590362-3.85590362zm1.24771084 6.04048193c-.85734939 0-1.55710843-.69831325-1.55710843-1.55566265 0-.85879518.69831325-1.55710844 1.55710843-1.55710844.85879519 0 1.55566265.69831326 1.55566265 1.55710844 0 .8573494-.69831325 1.55566265-1.55566265 1.55566265z"/></g><path d="m171.639518 16.8293976c-.047711 0-.095422 0-.143132.0014458-3.957109.0679518-6.796627 2.9566265-6.796627 6.8833735v12.9296385h2.181687v-7.9156626c1.306988 1.1812048 3.098313 1.8708433 5.093494 1.8708433 3.666506 0 6.549397-2.9681927 6.549397-6.8848192 0-3.9730121-2.77012-6.8848193-6.884819-6.8848193zm-.111325 11.7556626c-2.660241 0-4.479036-2.1831325-4.479036-4.8708433 0-1.9677109.825542-3.6665061 2.423132-4.4342169.008675-.0057831.018795-.0086747.02747-.013012.001446 0 .002892 0 .005783-.0014458.592771-.2718073 1.270844-.4207229 2.021205-.4207229 2.826506 0 4.645302 2.126747 4.645302 4.8708434.001445 2.7426506-1.81735 4.8693975-4.643856 4.8693975zm49.990843-9.8298795c-1.306988-1.1812048-3.099759-1.8708434-5.093494-1.8708434-3.666506 0-6.550843 2.9681928-6.550843 6.8848193 0 3.9744579 2.771566 6.8848193 6.884819 6.8848193.047711 0 .096868 0 .143133-.0014458 1.836144-.0318072 3.430843-.6708434 4.614939-1.7392771v1.3677109h2.183133v-6.5103615-.2472289-14.18168675h-2.183133v9.41349395zm-2.590843 9.4481928c-.008675.0043373-.018795.0086747-.02747.013012-.001446 0-.002892.0014458-.005783.0028916-.591326.2703615-1.270844.4207229-2.021205.4207229-2.826506 0-4.645301-2.126747-4.645301-4.8693976s1.818795-4.8708434 4.645301-4.8708434c2.660241 0 4.479036 2.1831326 4.479036 4.8708434-.001446 1.9662651-.828434 3.6650603-2.424578 4.4327711zm-91.512289-5.619759c-1.736386-.3354217-3.302169-.8110844-3.302169-1.9026506 0-1.2318073 1.372048-1.8187952 2.57494-1.8187952 1.286747 0 2.210602.6433735 2.77012 1.5672289l1.818795-1.2043374c-.896385-1.6785542-2.603855-2.3783132-4.45012-2.3783132-2.436145 0-4.898313 1.3142169-4.898313 3.8616867 0 2.7151808 2.126747 3.247229 4.617831 3.806747 1.399518.3079518 2.799036.6708434 2.799036 2.0703615 0 1.4269879-1.510843 2.0139759-2.882891 2.0139759-1.53976 0-2.491085-.6997591-3.358555-1.7638554l-1.734939 1.3431325c1.288192 1.8477108 2.882891 2.4346988 5.093494 2.4346988 2.602409 0 5.233734-1.146506 5.233734-4.1146988 0-2.6284338-1.959036-3.4684338-4.280963-3.9151807zm-34.7277112-5.7383133c-.0491567 0-.0954217 0-.1445783.0014458-3.9556627.0693976-6.7966265 2.9566265-6.7966265 6.8848193v12.9310843h2.1831325v-7.9171084c1.3069879 1.1812048 3.0983132 1.8708433 5.093494 1.8708433 3.666506 0 6.5493975-2.9667469 6.5493975-6.8848192 0-3.9744579-2.7701204-6.8862651-6.8848192-6.8862651zm-.1113253 11.7556627c-2.6587952 0-4.4775904-2.1831326-4.4775904-4.8693976 0-1.9691567.826988-3.6665061 2.4231325-4.4342169.0101205-.0043374.0187952-.0086747.0274699-.0130121.0014458 0 .0043374-.0014457.0057832-.0014457.592771-.2703615 1.2722891-.4207229 2.0212048-.4207229 2.826506 0 4.646747 2.126747 4.646747 4.8708433-.0014458 2.7412049-1.820241 4.8679519-4.646747 4.8679519zm10.2202405 1.6785542h2.183133v-21.15903617h-2.183133zm37.213012-1.6785542c-1.931566 0-1.959036-1.3431326-1.959036-3.0216868v-6.5493976h3.863133v-1.8477108h-3.863133v-3.7228916h-2.183132v3.7228916h-2.853976v1.8477108h2.853976v7.1927711c0 2.7137349.504578 4.3937349 3.61012 4.3937349.81253 0 1.791326-.1387951 2.54747-.4756626l-.083855-1.986506c-.588434.306506-1.288193.446747-1.931567.446747zm62.142651-11.7556627c-2.154217 0-3.779277 1.2043374-4.364819 2.4910843h-.056386c0-.7272289-.054939-1.4559036-.054939-2.1556626h-2.070362c0 .8689157.111325 1.9040964.111325 3.1069879v9.9918073h2.183133v-6.3816868c0-2.9956626 1.231807-5.0371084 4.058313-5.0371084 2.042892 0 2.995663 1.3706024 2.995663 3.5551807v7.8650603h2.183132v-8.0877109c-.002891-3.1648193-1.54265-5.3479518-4.98506-5.3479518zm-57.357108 13.4342169h2.183132v-13.0987952h-2.183132zm12.539277-11.4187952c1.315662 0 2.379759.4756626 3.303614 1.5961446l1.73494-1.5397591c-1.314217-1.4269879-3.106988-2.0703614-5.037108-2.0703614-4.030844 0-6.773494 2.9118072-6.773494 6.8848193 0 4.0308433 2.71518 6.8848192 6.773494 6.8848192 1.904096 0 3.693975-.6433735 4.953253-2.0992771l-1.623615-1.539759c-.811084 1.1204819-1.902651 1.6236145-3.331084 1.6236145-2.658795 0-4.422651-2.1831326-4.422651-4.8693976 0-2.6877109 1.483374-4.8708434 4.422651-4.8708434zm-11.447711-8.3971084c-.89494 0-1.594699.7272289-1.594699 1.5961445 0 .9224097.670843 1.5961446 1.594699 1.5961446.923855 0 1.594699-.6722891 1.594699-1.5961446 0-.8689156-.698314-1.5961445-1.594699-1.5961445zm86.360964 6.4322891c-1.904097 0-3.863133.6433735-5.206265 2.0139759l1.370602 1.4284338c1.036627-.9513253 2.491084-1.4284338 3.890603-1.4284338 2.042891 0 3.245783.980241 3.245783 2.8843374v.3918072h-.84c-3.218314 0-8.256868.2515663-8.256868 4.5903614 0 2.5460241 2.210603 3.8906025 4.870844 3.8906025h.026024l-.004338.0028915s2.355181.12 4.204338-1.0684337v.6795181h2.183133v-5.0139759-1.7436145-1.0857831c.001445-3.6954217-1.622169-5.5416868-5.483856-5.5416868zm3.302168 7.9763856c-.056385 2.1267469-1.344578 3.9469879-3.863132 3.9469879-1.651084 0-2.882892-.6159036-2.882892-2.2684337 0-1.7624097 1.791326-2.5185542 4.561446-2.5185542h2.183133v.84zm-48.633253-7.9763856c-1.90265 0-3.863132.6433735-5.206265 2.0139759l1.372049 1.4284338c1.03518-.9513253 2.491084-1.4284338 3.889156-1.4284338 2.042892 0 3.247229.980241 3.247229 2.8843374v.3918072h-.84c-3.218313 0-8.256867.2515663-8.256867 4.5903614 0 2.5460241 2.212048 3.8906025 4.870843 3.8906025h.024578l-.002891.0028915s2.353735.12 4.204337-1.0684337v.6795181h2.181688v-5.0139759-1.7436145-1.0857831c.001445-3.6954217-1.62217-5.5416868-5.483857-5.5416868zm3.302169 7.9778313c-.057831 2.126747-1.344578 3.9455422-3.861687 3.9455422-1.65253 0-2.884337-.6159036-2.884337-2.2684337 0-1.7624097 1.791325-2.5185542 4.562892-2.5185542h2.183132zm-76.431325-7.9778313c-1.904097 0-3.861687.6433735-5.206265 2.0139759l1.372048 1.4284338c1.035181-.9513253 2.491084-1.4284338 3.890602-1.4284338 2.042892 0 3.247229.980241 3.247229 2.8843374v.3918072h-.84c-3.218313 0-8.256867.2515663-8.256867 4.5903614 0 2.5460241 2.210602 3.8906025 4.869397 3.8906025h.026024l-.002891.0028915s2.355181.12 4.204337-1.0684337v.6795181h2.183133v-5.0139759-1.7436145-1.0857831c-.001446-3.6954217-1.62506-5.5416868-5.486747-5.5416868zm3.302168 7.9763856c-.056385 2.1267469-1.344578 3.9469879-3.863132 3.9469879-1.651084 0-2.882892-.6159036-2.882892-2.2684337 0-1.7624097 1.791326-2.5185542 4.562892-2.5185542h2.183132z"/></g></svg>