<svg height="51" viewBox="0 0 50 51" width="50" xmlns="http://www.w3.org/2000/svg"><g fill="none" fill-rule="evenodd" transform="translate(2.298042 2.293328)"><path d="m15.3646456 37.8788959c-5.1926163-.2180796-9.06515742-.5323055-13.45712153-4.1717353-3.66869404-3.0400873-1.37053272-27.56261008 1.25344627-30.17825798 6.17868264-4.42135138 25.29541216-3.85651869 34.71823346-2.727992 12.4375738 4.44587562 7.8071289 31.61279298 2.774414 37.07798528-2.4345703.9264092-11.2046722 0-15.9516601 0-3.9384766 5.8851843-6.1884766 8.8277764-6.75 8.8277764-.5615235 0-1.4239608-2.9425921-2.5873121-8.8277764z" opacity=".4" stroke="#f99a5b" stroke-linecap="round" stroke-linejoin="round" stroke-width="3"/><path d="m14.4441452 26.7144848c.203125 0 .3789062-.0136718.5273437-.0410156.1484375-.0273437.2753906-.0761719.3808594-.1464844.1054687-.0703125.1972656-.1640625.2753906-.28125s.1484375-.265625.2109375-.4453125c.6484375-1.96875 1.2714844-3.4414062 1.8691406-4.4179687.5976563-.9765625 1.1972657-1.4648438 1.7988282-1.4648438.265625 0 .5136718.1445313.7441406.4335938.2304687.2890625.4316406.6796875.6035156 1.171875s.3066406 1.0644531.4042969 1.7167969c.0976562.6523437.1464844 1.3457031.1464844 2.0800781 0 .296875.0800781.515625.2402343.65625.1601563.140625.4238282.2109375.7910157.2109375.265625 0 .4882812-.0214844.6679687-.0644531.1796875-.0429688.3203125-.1191407.421875-.2285157s.1738281-.2558593.2167969-.4394531c.0429687-.1835937.0644531-.4199219.0644531-.7089844 0-1.0546875-.0898437-2.0097656-.2695312-2.8652343-.1796875-.8554688-.4335938-1.5839844-.7617188-2.1855469s-.7265625-1.0664063-1.1953125-1.3945313-.9921875-.4921875-1.5703125-.4921875c-.4375 0-.8652344.0839844-1.2832031.2519532-.4179688.1679687-.8144531.4140625-1.1894531.7382812-.375.3242188-.7265625.71875-1.0546875 1.1835938-.328125.4648437-.625.9902343-.890625 1.5761718-.0703125.140625-.140625.2109375-.2109375.2109375-.046875 0-.0878907-.0234375-.1230469-.0703125-.0351563-.046875-.0527344-.125-.0527344-.234375-.0625-1.0546875-.1191406-1.9628906-.1699219-2.7246093-.0507812-.7617188-.1015625-1.4335938-.1523437-2.015625-.0507813-.5820313-.1035156-1.1074219-.1582031-1.5761719s-.1171875-.9414063-.1875-1.4179688c-.0234375-.1796875-.1054688-.3203125-.2460938-.421875s-.3046875-.1523437-.4921875-.1523437c-1.09375 0-1.640625.421875-1.640625 1.265625 0 .28125.0488281.7714844.1464844 1.4707031.0976562.6992188.2109375 1.5507813.3398437 2.5546875.1289063 1.0039063.2539063 2.125.375 3.3632813.1210938 1.2382812.2050782 2.5371093.2519532 3.8964843.015625.359375.1113281.6171875.2871093.7734375.1757813.15625.4707032.234375.8847657.234375zm12.6914062-12.9609375c.421875 0 .7558594-.0957031 1.0019531-.2871093.2460938-.1914063.3691407-.4550782.3691407-.7910157 0-.1796875-.0429688-.3535156-.1289063-.5214843-.0859375-.1679688-.2011719-.3144532-.3457031-.4394532-.1445313-.125-.3105469-.2246093-.4980469-.2988281-.1875-.0742187-.3828125-.1113281-.5859375-.1113281-.4375 0-.7871094.1015625-1.0488281.3046875-.2617188.203125-.3925781.46875-.3925781.796875 0 .1953125.0429687.375.1289062.5390625s.2011719.3066406.3457031.4277344c.1445313.1210937.3164063.2148437.515625.28125.1992188.0664062.4121094.0996093.6386719.0996093zm-.3515625 12.6210938c.53125 0 .9355469-.0976563 1.2128906-.2929688.2773438-.1953125.4160157-.4882812.4160157-.8789062 0-.375-.0078125-.7890625-.0234375-1.2421875s-.0351563-.9238281-.0585938-1.4121094c-.0234375-.4882812-.0488281-.984375-.0761719-1.4882812-.0273437-.5039063-.0585937-.9921875-.09375-1.4648438-.0351562-.4726562-.0703125-.9199219-.1054687-1.3417969-.0351563-.421875-.0683594-.8007812-.0996094-1.1367187-.046875-.484375-.421875-.7265625-1.125-.7265625-.390625 0-.7050781.0878906-.9433594.2636719-.2382812.1757812-.3574218.4003906-.3574218.6738281 0 .1796875.0253906.5136719.0761718 1.0019531.0507813.4882813.1054688 1.0996094.1640625 1.8339844.0585938.734375.1132813 1.5722656.1640625 2.5136719.0507813.9414062.0761719 1.9511718.0761719 3.0292968 0 .21875.0683594.3847657.2050781.4980469.1367188.1132813.3261719.1699219.5683594.1699219zm6.6679688-4.1484375c.140625 0 .2519531-.0351563.3339843-.1054688.0820313-.0703125.1464844-.1621093.1933594-.2753906.046875-.1132812.078125-.2421875.09375-.3867187.015625-.1445313.0234375-.2949219.0234375-.4511719 0-.8203125-.0253906-1.6230469-.0761719-2.4082031-.0507812-.7851563-.1210937-1.5585938-.2109375-2.3203125-.0898437-.7617188-.1933593-1.5136719-.3105468-2.2558594s-.2460938-1.4804688-.3867188-2.2148438c-.1171875-.578125-.78125-.8671875-1.9921875-.8671875-.2734375 0-.4785156.0742188-.6152344.2226563-.1367187.1484375-.2050781.3320312-.2050781.5507812 0 .0859375.0097656.171875.0292969.2578125.0195312.0859375.0449219.1835938.0761719.2929688.4296875 1.59375.7695312 3.171875 1.0195312 4.734375s.40625 3.0585937.46875 4.4882812c.015625.1796875.0644531.3183594.1464844.4160157.0820312.0976562.2246094.1582031.4277344.1816406zm-.6328125 4.4648437c.421875 0 .7558593-.0957031 1.0019531-.2871093.2460937-.1914063.3691406-.4550782.3691406-.7910157 0-.1796875-.0429687-.3535156-.1289062-.5214843-.0859375-.1679688-.2011719-.3144532-.3457032-.4394532-.1445312-.125-.3105468-.2246093-.4980468-.2988281-.1875-.0742187-.3828125-.1113281-.5859375-.1113281-.4375 0-.7871094.1015625-1.0488282.3046875-.2617187.203125-.3925781.46875-.3925781.796875 0 .1953125.0429688.375.1289063.5390625s.2011718.3066406.3457031.4277344c.1445312.1210937.3164062.2148437.515625.28125.1992187.0664062.4121094.0996093.6386719.0996093z" fill="#ff8737" fill-rule="nonzero"/></g></svg>